<svg width="26" height="26" viewBox="0 0 26 26" fill="none" xmlns="http://www.w3.org/2000/svg">
<path d="M15.8687 15.6249L15.8719 15.6206C15.7717 15.9094 15.5829 16.1593 15.3324 16.3345C15.041 16.5393 14.6315 16.7007 14.0454 16.7288L11.8896 16.7332V13.559C12.2016 13.5677 13.585 13.5449 14.1852 13.5753C14.9673 13.6132 15.4538 13.923 15.7127 14.2989C15.9965 14.6792 16.0301 15.1873 15.8687 15.6249ZM13.5623 12.0922C14.1072 12.0662 14.4853 11.9167 14.755 11.7282C14.9868 11.57 15.1613 11.3306 15.2533 11.0663C15.3985 10.66 15.3693 10.1888 15.106 9.83667C14.8644 9.49108 14.4148 9.204 13.6912 9.16933C13.1549 9.14117 12.1604 9.16608 11.8885 9.1585V12.0933C11.9156 12.0976 13.5558 12.0922 13.5623 12.0922ZM26 13C26 20.1793 20.1793 26 13 26C5.82075 26 0 20.1793 0 13C0 5.82075 5.82075 0 13 0C20.1793 0 26 5.82075 26 13ZM18.7958 15.3205C18.8197 13.7204 17.4525 12.7942 16.7288 12.5342C17.5034 12.0022 18.0353 11.4043 18.0353 10.2754C18.0353 8.4825 16.2522 7.64292 15.1678 7.53567C15.0789 7.52592 14.8319 7.52158 14.8319 7.52158V5.80775H13.0628L13.0672 7.52267H11.8842V5.81425H10.0858V7.514C9.7695 7.52158 7.86608 7.5205 7.86608 7.5205V9.03825H8.48467C9.13575 9.05558 9.37517 9.43042 9.34917 9.77167V16.3161C9.34513 16.4235 9.30209 16.5257 9.22811 16.6037C9.15414 16.6817 9.05429 16.73 8.94725 16.7397C8.6775 16.7516 8.2745 16.7397 8.2745 16.7397L7.92783 18.46H10.0902V20.1933H11.8896V18.4698H13.0715V20.1966H14.8308V18.4763C16.8881 18.5304 18.7774 17.316 18.7958 15.3205Z" fill="#055EFF"/>
</svg>
