<svg width="197" height="38" viewBox="0 0 197 38" fill="none" xmlns="http://www.w3.org/2000/svg">
<rect y="6" width="24" height="24" rx="12" fill="url(#paint0_linear_128_2551)"/>
<path d="M40.232 19.512C41.888 19.824 43.808 20.424 43.808 22.2C43.808 23.88 42.152 24.816 40.088 24.816C37.688 24.816 36.152 23.616 35.624 21.24H32.624C32.984 25.056 35.816 27.312 39.944 27.312C43.376 27.312 46.856 25.512 46.856 22.008C46.856 18.504 43.952 17.4 40.904 16.8L38.768 16.392C37.28 16.104 36.176 15.432 36.176 14.088C36.176 12.384 38.168 11.784 39.512 11.784C41.216 11.784 43.04 12.384 43.544 14.472H46.496C45.8 10.848 43.112 9.288 39.68 9.288C36.488 9.288 33.104 10.92 33.104 14.184C33.104 17.136 35.384 18.552 38.12 19.104L40.232 19.512ZM52.0265 9.6H49.1705V27H52.0265V20.136C52.0265 17.808 52.8425 16.128 55.0265 16.128C57.2105 16.128 57.4745 17.832 57.4745 19.584V27H60.3305V18.888C60.3305 15.816 59.0585 13.8 55.9385 13.8C54.1385 13.8 52.7705 14.544 52.0265 15.888V9.6ZM71.2953 21.912C71.2953 24.096 70.0473 25.176 67.9353 25.176C66.4953 25.176 65.5593 24.504 65.5593 23.376C65.5593 21.888 67.2153 21.312 71.2953 20.928V21.912ZM67.3113 27.312C69.2073 27.312 70.7433 26.64 71.5593 25.248C71.6073 26.136 71.7033 26.448 71.7993 27H74.4153C74.1753 25.92 74.0313 24.216 74.0313 22.584C74.0313 21.408 74.0793 19.896 74.0793 19.248C74.1513 15.12 71.7273 13.704 68.6313 13.704C65.5113 13.704 63.3273 15.504 63.1353 18.144H65.9433C66.0153 16.584 67.0953 15.816 68.5353 15.816C69.9513 15.816 71.2233 16.488 71.2233 18.696V18.936C66.4953 19.416 62.5353 20.232 62.5353 23.448C62.5353 25.8 64.5033 27.312 67.3113 27.312ZM76.9674 9.6V27H79.8234V22.872L81.1914 21.408L85.2474 27H88.5834L83.0874 19.392L88.0314 14.088H84.5994L79.8234 19.272V9.6H76.9674ZM101.124 21.36C101.364 17.016 98.8916 13.8 94.9316 13.8C91.2596 13.8 88.5956 16.56 88.5956 20.448C88.5956 24.144 90.9716 27.312 95.1236 27.312C98.4596 27.312 100.38 25.2 100.98 23.136H98.1716C97.6676 24.336 96.4916 24.936 95.0036 24.936C93.3716 24.936 91.6916 23.76 91.4996 21.36H101.124ZM94.9316 16.032C96.6116 16.032 98.1476 17.256 98.2196 19.272H91.4996C91.7396 16.824 93.5876 16.032 94.9316 16.032ZM110.531 14.112C110.315 14.088 110.003 14.064 109.787 14.064C108.227 14.088 106.979 14.952 106.283 16.392V14.088H103.475V27H106.331V20.232C106.331 17.64 107.363 16.92 109.163 16.92C109.595 16.92 110.051 16.944 110.531 16.992V14.112ZM112.848 27V23.736H109.584V27H112.848ZM115.625 14.088H113.825V16.152H115.625V27H118.481V16.152H121.025V14.088H118.481V13.392C118.481 12.048 118.793 11.784 120.209 11.784H121.025V9.6H119.897C116.777 9.6 115.625 10.272 115.625 13.296V14.088ZM122.999 9.6V12.48H125.855V9.6H122.999ZM122.999 14.088V27H125.855V14.088H122.999ZM131.925 14.088H129.069V27H131.925V20.136C131.925 17.808 132.741 16.128 134.925 16.128C137.109 16.128 137.373 17.832 137.373 19.584V27H140.229V18.888C140.229 15.816 138.957 13.8 135.837 13.8C134.037 13.8 132.669 14.544 131.925 15.888V14.088ZM151.194 21.912C151.194 24.096 149.946 25.176 147.834 25.176C146.394 25.176 145.458 24.504 145.458 23.376C145.458 21.888 147.114 21.312 151.194 20.928V21.912ZM147.21 27.312C149.106 27.312 150.642 26.64 151.458 25.248C151.506 26.136 151.602 26.448 151.698 27H154.314C154.074 25.92 153.93 24.216 153.93 22.584C153.93 21.408 153.978 19.896 153.978 19.248C154.05 15.12 151.626 13.704 148.53 13.704C145.41 13.704 143.226 15.504 143.034 18.144H145.842C145.914 16.584 146.994 15.816 148.434 15.816C149.85 15.816 151.122 16.488 151.122 18.696V18.936C146.394 19.416 142.434 20.232 142.434 23.448C142.434 25.8 144.402 27.312 147.21 27.312ZM159.722 14.088H156.866V27H159.722V20.136C159.722 17.808 160.538 16.128 162.722 16.128C164.906 16.128 165.17 17.832 165.17 19.584V27H168.026V18.888C168.026 15.816 166.754 13.8 163.634 13.8C161.834 13.8 160.466 14.544 159.722 15.888V14.088ZM176.447 13.8C172.607 13.8 170.111 16.728 170.111 20.568C170.111 24.408 172.583 27.312 176.327 27.312C179.087 27.312 181.751 25.608 182.327 22.584H179.543C179.183 24.312 177.767 24.936 176.375 24.936C174.695 24.936 173.063 23.616 173.063 20.544C173.063 17.496 174.671 16.176 176.447 16.176C178.007 16.176 179.207 17.136 179.447 18.504H182.231C181.751 15.624 179.255 13.8 176.447 13.8ZM196.256 21.36C196.496 17.016 194.024 13.8 190.064 13.8C186.392 13.8 183.728 16.56 183.728 20.448C183.728 24.144 186.104 27.312 190.256 27.312C193.592 27.312 195.512 25.2 196.112 23.136H193.304C192.8 24.336 191.624 24.936 190.136 24.936C188.504 24.936 186.824 23.76 186.632 21.36H196.256ZM190.064 16.032C191.744 16.032 193.28 17.256 193.352 19.272H186.632C186.872 16.824 188.72 16.032 190.064 16.032Z" fill="#F4F4F4"/>
<defs>
<linearGradient id="paint0_linear_128_2551" x1="12" y1="6" x2="12" y2="30" gradientUnits="userSpaceOnUse">
<stop stop-color="#236BFE"/>
<stop offset="1" stop-color="#387AFF" stop-opacity="0.5"/>
</linearGradient>
</defs>
</svg>
