<svg width="35" height="35" viewBox="0 0 35 35" fill="none" xmlns="http://www.w3.org/2000/svg">
<path fill-rule="evenodd" clip-rule="evenodd" d="M0.542725 17.4996C0.542725 8.13377 8.13523 0.54126 17.5011 0.54126C26.8668 0.54126 34.4594 8.13377 34.4594 17.4996C34.4594 26.8654 26.8668 34.4579 17.5011 34.4579C8.13523 34.4579 0.542725 26.8654 0.542725 17.4996ZM24.7578 14.4269C25.3599 13.8248 25.3599 12.8487 24.7578 12.2467C24.1558 11.6446 23.1796 11.6446 22.5776 12.2467L15.3635 19.4607L12.4449 16.43C11.8543 15.8167 10.8783 15.7982 10.265 16.3888C9.65172 16.9794 9.6333 17.9553 10.2239 18.5687L14.2322 22.7312C14.5193 23.0294 14.9143 23.1996 15.3282 23.2035C15.7422 23.2073 16.1402 23.0447 16.4328 22.7519L24.7578 14.4269Z" fill="#075EFE"/>
</svg>
