<svg width="33" height="45" viewBox="0 0 33 45" fill="none" xmlns="http://www.w3.org/2000/svg">
<mask id="mask0_128_2593" style="mask-type:alpha" maskUnits="userSpaceOnUse" x="0" y="-1" width="33" height="46">
<path d="M3.83609 12.3289C3.83609 9.5787 6.07368 7.34111 8.82418 7.34111C11.5743 7.34111 13.8123 9.5787 13.8123 12.3289V16.3487C15.1977 15.925 16.2089 14.6346 16.2089 13.1118V3.38361C16.2089 1.51759 14.6906 -0.000366211 12.8246 -0.000366211H4.82377C2.95775 -0.000366211 1.43945 1.51759 1.43945 3.38361V13.1118C1.43945 14.6346 2.45029 15.925 3.83609 16.3487V12.3289Z" fill="#055EFF"/>
<path d="M29.5532 -0.000366211H21.5521C19.686 -0.000366211 18.1681 1.51759 18.1681 3.38361V13.1118C18.1681 14.9779 19.686 16.4958 21.5521 16.4958H29.5532C31.4193 16.4958 32.9376 14.9779 32.9376 13.1118V3.38361C32.9376 1.51759 31.4193 -0.000366211 29.5532 -0.000366211Z" fill="#055EFF"/>
<path d="M23.2104 20.8286C21.8859 20.8286 20.8127 21.9021 20.8127 23.2263V22.005C20.8127 20.6808 19.7392 19.6073 18.4147 19.6073C17.0905 19.6073 16.017 20.6805 16.017 22.005V20.9778C16.017 19.7183 15.0461 18.6867 13.8122 18.5883C13.7485 18.5835 13.6844 18.5801 13.6194 18.5801C12.6528 18.5801 11.8205 19.1526 11.4411 19.9765C11.3007 20.2813 11.2217 20.6202 11.2217 20.9778V12.133C11.2217 10.8089 10.1482 9.73535 8.82406 9.73535C7.4999 9.73535 6.4264 10.8089 6.4264 12.133V32.7175L6.32253 32.7042L4.84545 26.3817C4.54404 25.0923 3.25427 24.2909 1.96485 24.5923C0.610713 24.5923 -0.245157 25.6713 0.0627247 26.99L1.77549 34.3202C2.6712 40.0556 7.30748 44.4439 7.30748 44.4439H21.8746C24.3087 40.7418 25.606 36.4083 25.6067 31.9774L25.608 23.2263C25.608 21.9021 24.5345 20.8286 23.2104 20.8286V20.8286Z" fill="#055EFF"/>
</mask>
<g mask="url(#mask0_128_2593)">
<path d="M16.2232 42.1916C31.4418 42.1916 43.7788 29.8545 43.7788 14.6359C43.7788 -0.582606 31.4418 -12.9197 16.2232 -12.9197C1.00467 -12.9197 -11.3324 -0.582606 -11.3324 14.6359C-11.3324 29.8545 1.00467 42.1916 16.2232 42.1916Z" fill="#055EFF"/>
</g>
</svg>
