<svg width="20" height="20" viewBox="0 0 20 20" fill="none" xmlns="http://www.w3.org/2000/svg">
<path d="M16.3638 13.536L14.9498 12.12L16.3638 10.706C16.8314 10.2424 17.2029 9.69108 17.4568 9.08358C17.7108 8.47608 17.8423 7.8244 17.8437 7.16595C17.8452 6.5075 17.7166 5.85525 17.4652 5.24665C17.2139 4.63804 16.8449 4.08507 16.3793 3.61947C15.9137 3.15387 15.3607 2.78483 14.7521 2.53351C14.1435 2.2822 13.4913 2.15357 12.8328 2.15502C12.1744 2.15646 11.5227 2.28794 10.9152 2.54192C10.3077 2.79589 9.75632 3.16736 9.29277 3.63499L7.87877 5.04999L6.46377 3.63599L7.87977 2.22199C9.19259 0.909167 10.9732 0.171631 12.8298 0.171631C14.6864 0.171631 16.4669 0.909167 17.7798 2.22199C19.0926 3.53481 19.8301 5.31538 19.8301 7.17199C19.8301 9.0286 19.0926 10.8092 17.7798 12.122L16.3648 13.536H16.3638ZM13.5358 16.364L12.1208 17.778C10.8079 19.0908 9.02738 19.8283 7.17077 19.8283C5.31416 19.8283 3.53359 19.0908 2.22077 17.778C0.907946 16.4652 0.17041 14.6846 0.17041 12.828C0.17041 10.9714 0.907946 9.19081 2.22077 7.87799L3.63577 6.46399L5.04977 7.87999L3.63577 9.29399C3.16814 9.75754 2.79667 10.3089 2.5427 10.9164C2.28872 11.5239 2.15724 12.1756 2.1558 12.834C2.15435 13.4925 2.28298 14.1447 2.53429 14.7533C2.78561 15.3619 3.15465 15.9149 3.62025 16.3805C4.08585 16.8461 4.63882 17.2152 5.24743 17.4665C5.85603 17.7178 6.50828 17.8464 7.16673 17.845C7.82518 17.8435 8.47686 17.712 9.08436 17.4581C9.69186 17.2041 10.2432 16.8326 10.7068 16.365L12.1208 14.951L13.5358 16.365V16.364ZM12.8278 5.75699L14.2428 7.17199L7.17177 14.242L5.75677 12.828L12.8278 5.75799V5.75699Z" fill="white"/>
</svg>
