<svg width="28" height="28" viewBox="0 0 28 28" xmlns="http://www.w3.org/2000/svg">
<path d="M14 28C6.2678 28 0 21.7322 0 14C0 6.2678 6.2678 0 14 0C21.7322 0 28 6.2678 28 14C28 21.7322 21.7322 28 14 28ZM9.646 15.638L9.6642 15.6282L10.8822 19.6462C11.039 20.0816 11.2546 20.16 11.5164 20.1236C11.7796 20.0886 11.9182 19.9472 12.0904 19.782L13.7536 18.1748L17.3236 20.818C17.976 21.1778 18.445 20.9916 18.6074 20.2132L20.9272 9.2624C21.1834 8.2432 20.7354 7.8344 19.9444 8.1592L6.3182 13.4232C5.3886 13.7956 5.3942 14.3164 6.1502 14.5474L9.646 15.6394V15.638Z"/>
</svg>
