<svg width="29" height="24" viewBox="0 0 29 24" xmlns="http://www.w3.org/2000/svg">
<path d="M14.0881 6.39555L14.15 7.39643L13.1203 7.27386C9.37242 6.8041 6.09818 5.21088 3.31804 2.5352L1.95901 1.2076L1.60891 2.18799C0.867509 4.37354 1.34113 6.68153 2.88564 8.23377C3.70935 9.09172 3.524 9.21429 2.10314 8.70366C1.60891 8.54024 1.17639 8.41768 1.13529 8.4789C0.991159 8.62195 1.48539 10.4805 1.87657 11.2159C2.41202 12.2372 3.50339 13.2379 4.6978 13.8303L5.70687 14.3L4.51245 14.3205C3.35926 14.3205 3.31804 14.3409 3.44169 14.7698C3.85348 16.0974 5.4803 17.5068 7.29247 18.1195L8.56931 18.5484L7.45721 19.202C5.80979 20.1417 3.87409 20.6727 1.9384 20.7135C1.01164 20.734 0.249756 20.8156 0.249756 20.8769C0.249756 21.0812 2.76211 22.225 4.22418 22.6743C8.61041 24.0019 13.8205 23.43 17.7331 21.1629C20.5131 19.5493 23.2931 16.3425 24.5904 13.2379C25.2906 11.5835 25.9908 8.56061 25.9908 7.11045C25.9908 6.17091 26.0525 6.04834 27.2057 4.92502C27.8853 4.27134 28.5236 3.55645 28.6473 3.35229C28.8531 2.96423 28.8326 2.96423 27.7824 3.31144C26.032 3.92414 25.7848 3.84243 26.6498 2.92338C27.2881 2.2697 28.05 1.08504 28.05 0.73783C28.05 0.676609 27.7411 0.778686 27.3911 0.962472C27.0205 1.16675 26.1968 1.4731 25.5789 1.657L24.4669 2.00421L23.4578 1.33016C22.9019 0.962472 22.1193 0.554044 21.7075 0.43148C20.6572 0.145497 19.051 0.186352 18.1038 0.51319C15.5296 1.43236 13.9028 3.80157 14.0881 6.39555Z"/>
</svg>
