<svg width="33" height="33" viewBox="0 0 33 33" fill="none" xmlns="http://www.w3.org/2000/svg">
<path d="M26.8135 17.8531C26.2795 17.8531 25.8467 18.286 25.8467 18.8199V24.2985H22.9463C22.4124 24.2985 21.9795 24.7313 21.9795 25.2653C21.9795 25.7992 22.4124 26.2321 22.9463 26.2321H26.8135C27.3474 26.2321 27.7803 25.7992 27.7803 25.2653V18.8199C27.7803 18.286 27.3474 17.8531 26.8135 17.8531Z" fill="#065EFE"/>
<path d="M6.18848 15.1461C6.72241 15.1461 7.15527 14.7133 7.15527 14.1793V8.70081H10.0557C10.5896 8.70081 11.0225 8.26794 11.0225 7.73401C11.0225 7.20008 10.5896 6.76721 10.0557 6.76721H6.18848C5.65455 6.76721 5.22168 7.20008 5.22168 7.73401V14.1793C5.22168 14.7133 5.65455 15.1461 6.18848 15.1461Z" fill="#065EFE"/>
<path d="M19.0146 23.3317H15.792C14.7241 23.3317 13.8584 24.1973 13.8584 25.2653C13.8584 26.3332 14.7241 27.1989 15.792 27.1989H19.0146C19.5486 27.1989 19.9814 26.766 19.9814 26.2321V24.2985C19.9814 23.7645 19.5486 23.3317 19.0146 23.3317Z" fill="#065EFE"/>
<path d="M11.9248 25.2653C11.9248 23.1329 13.6596 21.3981 15.792 21.3981H18.6924V20.4313C18.6924 18.832 17.3913 17.5309 15.792 17.5309H2.90137C1.30209 17.5309 0.000976562 18.832 0.000976562 20.4313V30.0992C0.000976562 31.6985 1.30209 32.9996 2.90137 32.9996H15.792C17.3913 32.9996 18.6924 31.6985 18.6924 30.0992V29.1324H15.792C13.6596 29.1324 11.9248 27.3976 11.9248 25.2653Z" fill="#065EFE"/>
<path d="M32.0342 5.80042H28.8115C27.7436 5.80042 26.8779 6.66608 26.8779 7.73401C26.8779 8.80193 27.7436 9.6676 28.8115 9.6676H32.0342C32.5681 9.6676 33.001 9.23474 33.001 8.70081V6.76721C33.001 6.23328 32.5681 5.80042 32.0342 5.80042Z" fill="#065EFE"/>
<path d="M24.9443 7.73401C24.9443 5.60164 26.6792 3.86682 28.8115 3.86682H31.7119V2.90002C31.7119 1.30075 30.4108 -0.000366211 28.8115 -0.000366211H15.9209C14.3216 -0.000366211 13.0205 1.30075 13.0205 2.90002V12.568C13.0205 14.1673 14.3216 15.4684 15.9209 15.4684H28.8115C30.4108 15.4684 31.7119 14.1673 31.7119 12.568V11.6012H28.8115C26.6792 11.6012 24.9443 9.86638 24.9443 7.73401Z" fill="#065EFE"/>
</svg>
