<svg width="31" height="29" viewBox="0 0 31 29" fill="none" xmlns="http://www.w3.org/2000/svg">
<path fill-rule="evenodd" clip-rule="evenodd" d="M24.3937 8.92158H30.9167C30.9167 3.68421 27.7786 0.624634 22.4615 0.624634H8.53856C3.22152 0.624634 0.083374 3.68421 0.083374 8.85477V20.1445C0.083374 25.3151 3.22152 28.3746 8.53856 28.3746H22.4615C27.7786 28.3746 30.9167 25.3151 30.9167 20.1445V19.6635H24.3937C21.3664 19.6635 18.9123 17.2708 18.9123 14.3193C18.9123 11.3677 21.3664 8.97502 24.3937 8.97502V8.92158ZM24.3937 11.2196H29.7656C30.4013 11.2196 30.9167 11.7221 30.9167 12.3419V16.2432C30.9093 16.86 30.3982 17.3583 29.7656 17.3655H24.5171C22.9845 17.3856 21.6443 16.3625 21.2967 14.9071C21.1226 14.0037 21.367 13.0714 21.9644 12.3601C22.5617 11.6489 23.4509 11.2314 24.3937 11.2196ZM24.6267 15.3213H25.1337C25.7846 15.3213 26.3123 14.8069 26.3123 14.1723C26.3123 13.5377 25.7846 13.0233 25.1337 13.0233H24.6267C24.3154 13.0197 24.0156 13.1378 23.7942 13.3511C23.5728 13.5645 23.4482 13.8554 23.4482 14.1589C23.4481 14.7957 23.9736 15.314 24.6267 15.3213ZM7.38745 8.92158H16.0893C16.7402 8.92158 17.2678 8.40715 17.2678 7.77256C17.2678 7.13798 16.7402 6.62355 16.0893 6.62355H7.38745C6.74188 6.62351 6.21644 7.12984 6.20893 7.7592C6.20889 8.39598 6.73436 8.91426 7.38745 8.92158Z" fill="#055EFF"/>
</svg>
